<?xml version="1.0" standalone="no"?><!DOCTYPE svg PUBLIC "-//W3C//DTD SVG 1.1//EN" "http://www.w3.org/Graphics/SVG/1.1/DTD/svg11.dtd"><svg t="1631112997634" class="icon" viewBox="0 0 1032 1024" version="1.1" xmlns="http://www.w3.org/2000/svg" p-id="3002" xmlns:xlink="http://www.w3.org/1999/xlink" width="201.5625" height="200"><defs><style type="text/css"></style></defs><path d="M170.595585 618.408996A106.622241 106.622241 0 1 1 275.938359 511.786756 106.622241 106.622241 0 0 1 170.595585 618.408996z m0-170.595585A63.973344 63.973344 0 1 0 233.289463 511.786756 63.973344 63.973344 0 0 0 170.595585 447.813411zM511.786756 618.408996a106.622241 106.622241 0 1 1 106.62224-106.62224 106.622241 106.622241 0 0 1-106.62224 106.62224z m0-170.595585a63.973344 63.973344 0 1 0 63.973344 63.973345 63.973344 63.973344 0 0 0-63.973344-63.973345zM852.977926 618.408996a106.622241 106.622241 0 1 1 106.622241-106.62224 106.622241 106.622241 0 0 1-106.622241 106.62224z m0-170.595585a63.973344 63.973344 0 1 0 63.973344 63.973345 63.973344 63.973344 0 0 0-63.973344-63.973345z" p-id="3003" fill="#2c2c2c"></path></svg>