<?xml version="1.0" standalone="no"?><!DOCTYPE svg PUBLIC "-//W3C//DTD SVG 1.1//EN" "http://www.w3.org/Graphics/SVG/1.1/DTD/svg11.dtd"><svg t="1631078603342" class="icon" viewBox="0 0 1024 1024" version="1.1" xmlns="http://www.w3.org/2000/svg" p-id="6953" xmlns:xlink="http://www.w3.org/1999/xlink" width="200" height="200"><defs><style type="text/css"></style></defs><path d="M409.941333 113.834667C425.344 64.597333 452.736 42.666667 479.573333 42.666667c34.133333 0 67.242667 35.498667 73.344 95.317333 6.4 63.018667-5.205333 142.805333-26.154666 203.349333h413.824C986.666667 341.333333 1024 380.586667 1024 426.666667s-37.333333 85.333333-83.413333 85.333333h-215.808c-33.450667 0-37.76 34.730667-4.394667 39.210667 68.437333 9.173333 77.525333 107.477333-17.024 114.901333-23.296 1.834667-27.946667 30.933333-1.152 36.992 61.610667 13.909333 62.208 106.666667-32.341333 117.632-24.704 2.858667-29.696 33.962667-1.450667 36.138667 28.586667 2.218667 39.850667 12.032 39.850667 25.898666 0 46.933333-86.144 98.56-188.16 98.56C336.896 981.333333 293.76 853.333333 0 853.333333v-384c273.322667 0 366.378667-215.978667 409.941333-355.498666z" p-id="6954" fill="#ffffff"></path></svg>